# xmcd
#
# Track frame offsets:
#	150
#	9462
#	19777
#	28682
#	37270
#	47195
#	54990
#	65032
#	70825
#	82000
#	102402
#	111807
#
# Disc length: 1606 seconds
#
# Revision: 0
# Processed by: cddbd v1.5.1PL2 Copyright (c) Steve Scherf et al.
# Submitted via: audiograbber 1.83.01
#
DISCID=a406440c
DTITLE=Danny Boy - The Magic of Ireland
DYEAR=1900
DGENRE=Country
TTITLE0=Danny Boy
TTITLE1=Sweet Rosie O' Grady
TTITLE2=It' a Long Way to ttipperary
TTITLE3=The rose of tralee
TTITLE4=Peg of my heart
TTITLE5=When Iris eyes are smiling
TTITLE6=Clancy Lowered the boom
TTITLE7=The daughter of Rosie O' Grady
TTITLE8=The leprechaun
TTITLE9=The Mountains of Mourne
TTITLE10=Believe me if all those endearing young charms 
TTITLE11=Phil the fluters ball
EXTD=
EXTT0=Leo McCaffry
EXTT1=
EXTT2=
EXTT3=
EXTT4=
EXTT5=Roly Daniels
EXTT6=
EXTT7=
EXTT8=
EXTT9=
EXTT10=
EXTT11=
PLAYORDER=
